<svg xmlns="http://www.w3.org/2000/svg" xmlns:xlink="http://www.w3.org/1999/xlink" width="1600" height="984" viewBox="0 0 1600 984"><defs><filter id="grey"><feColorMatrix type="saturate" values="0"/></filter></defs><rect width="1600" height="984" fill="#f7f7f4"/><text x="60" y="78" font-family="system-ui,-apple-system,'Segoe UI',Helvetica,Arial,sans-serif" font-size="40" font-weight="700" fill="#161616">Credo — Brand Identity Concepts</text><text x="60" y="116" font-family="system-ui,-apple-system,'Segoe UI',Helvetica,Arial,sans-serif" font-size="20" fill="#6b6b6b">Zero-Friction Restaurant Review Engine &amp; Reputation Firewall</text><rect x="60" y="150" width="474.667" height="774" rx="18" fill="#fff" stroke="#e4e4e0" stroke-width="1"/><g filter="url(#grey)"><svg xmlns="http://www.w3.org/2000/svg" role="img" aria-labelledby="title-a" viewBox="0 0 256 256" x="90" y="190" width="414.667" height="300" preserveAspectRatio="xMidYMid meet">
  <title id="c0-title-a">Credo - Concept A: The Radiant Arc Monogram</title>
  <!-- Architectural circular C with clean 45° terminal cuts and nested diamond -->
  <path fill="#000000" fill-rule="evenodd" d="
    M 190 70
    A 92 92 0 1 0 190 186
    L 154 150
    A 42 42 0 1 1 154 106
    Z
    M 190 128
    L 210 108
    L 230 128
    L 210 148
    Z
  "/>
</svg></g><g filter="url(#grey)"><svg xmlns="http://www.w3.org/2000/svg" role="img" aria-labelledby="lockup-a" viewBox="0 0 840 256" x="90" y="514" width="414.667" height="120" preserveAspectRatio="xMidYMid meet">
  <title id="l0-lockup-a">Credo Lockup A</title>
  <g id="l0-symbol">
    <path fill="#000000" fill-rule="evenodd" d="
    M 190 70
    A 92 92 0 1 0 190 186
    L 154 150
    A 42 42 0 1 1 154 106
    Z
    M 190 128
    L 210 108
    L 230 128
    L 210 148
    Z
  "/>
  </g>
  <g id="l0-wordmark" fill="#000000" fill-rule="evenodd">
    <path d="M 350 72 A 60 60 0 1 0 350 184 L 332 158 A 34 34 0 1 1 332 98 Z M 384 68 H 430 C 452 68 466 80 466 98 C 466 112 456 122 442 126 L 470 188 H 440 L 416 134 H 410 V 188 H 384 Z M 410 92 V 114 H 426 C 434 114 440 108 440 103 C 440 97 434 92 426 92 Z M 488 68 H 554 V 94 H 514 V 115 H 548 V 141 H 514 V 162 H 554 V 188 H 488 Z M 574 68 H 614 C 646 68 668 92 668 128 C 668 164 646 188 614 188 H 574 Z M 600 94 V 162 H 614 C 632 162 642 148 642 128 C 642 108 632 94 614 94 Z M 742 68 C 776 68 800 94 800 128 C 800 162 776 188 742 188 C 708 188 684 162 684 128 C 684 94 708 68 742 68 Z M 742 94 C 724 94 710 108 710 128 C 710 148 724 162 742 162 C 760 162 774 148 774 128 C 774 108 760 94 742 94 Z"/>
  </g>
</svg></g><g filter="url(#grey)"><svg xmlns="http://www.w3.org/2000/svg" role="img" aria-labelledby="title-a" viewBox="0 0 256 256" x="90" y="660" width="64" height="64" preserveAspectRatio="xMidYMid meet">
  <title id="s064-title-a">Credo - Concept A: The Radiant Arc Monogram</title>
  <!-- Architectural circular C with clean 45° terminal cuts and nested diamond -->
  <path fill="#000000" fill-rule="evenodd" d="
    M 190 70
    A 92 92 0 1 0 190 186
    L 154 150
    A 42 42 0 1 1 154 106
    Z
    M 190 128
    L 210 108
    L 230 128
    L 210 148
    Z
  "/>
</svg></g><text x="122" y="744" font-family="system-ui,-apple-system,'Segoe UI',Helvetica,Arial,sans-serif" font-size="12" fill="#8a8a8a" text-anchor="middle">64px</text><g filter="url(#grey)"><svg xmlns="http://www.w3.org/2000/svg" role="img" aria-labelledby="title-a" viewBox="0 0 256 256" x="180" y="692" width="32" height="32" preserveAspectRatio="xMidYMid meet">
  <title id="s032-title-a">Credo - Concept A: The Radiant Arc Monogram</title>
  <!-- Architectural circular C with clean 45° terminal cuts and nested diamond -->
  <path fill="#000000" fill-rule="evenodd" d="
    M 190 70
    A 92 92 0 1 0 190 186
    L 154 150
    A 42 42 0 1 1 154 106
    Z
    M 190 128
    L 210 108
    L 230 128
    L 210 148
    Z
  "/>
</svg></g><text x="196" y="744" font-family="system-ui,-apple-system,'Segoe UI',Helvetica,Arial,sans-serif" font-size="12" fill="#8a8a8a" text-anchor="middle">32px</text><g filter="url(#grey)"><svg xmlns="http://www.w3.org/2000/svg" role="img" aria-labelledby="title-a" viewBox="0 0 256 256" x="238" y="708" width="16" height="16" preserveAspectRatio="xMidYMid meet">
  <title id="s016-title-a">Credo - Concept A: The Radiant Arc Monogram</title>
  <!-- Architectural circular C with clean 45° terminal cuts and nested diamond -->
  <path fill="#000000" fill-rule="evenodd" d="
    M 190 70
    A 92 92 0 1 0 190 186
    L 154 150
    A 42 42 0 1 1 154 106
    Z
    M 190 128
    L 210 108
    L 230 128
    L 210 148
    Z
  "/>
</svg></g><text x="246" y="744" font-family="system-ui,-apple-system,'Segoe UI',Helvetica,Arial,sans-serif" font-size="12" fill="#8a8a8a" text-anchor="middle">16px</text><text x="90.0" y="780" font-family="system-ui,-apple-system,'Segoe UI',Helvetica,Arial,sans-serif" font-size="26" font-weight="700" fill="#161616">A · The Radiant Arc</text><text x="90.0" y="814" font-family="system-ui,-apple-system,'Segoe UI',Helvetica,Arial,sans-serif" font-size="19" fill="#555">Circular geometric C with 45° cuts cradling</text><text x="90.0" y="840" font-family="system-ui,-apple-system,'Segoe UI',Helvetica,Arial,sans-serif" font-size="19" fill="#555">a nested 5-star review diamond.</text><rect x="562.667" y="150" width="474.667" height="774" rx="18" fill="#fff" stroke="#e4e4e0" stroke-width="1"/><g filter="url(#grey)"><svg xmlns="http://www.w3.org/2000/svg" role="img" aria-labelledby="title-b" viewBox="0 0 256 256" x="592.667" y="190" width="414.667" height="300" preserveAspectRatio="xMidYMid meet">
  <title id="c1-title-b">Credo - Concept B: The Reputation Firewall</title>
  <!-- Fortified shield silhouette with negative-space 4-point review star -->
  <path fill="#000000" fill-rule="evenodd" d="
    M 128 24
    L 216 56
    V 136
    C 216 188 178 224 128 238
    C 78 224 40 188 40 136
    V 56
    Z
    M 128 72
    C 128 102 108 126 78 126
    C 108 126 128 150 128 180
    C 128 150 148 126 178 126
    C 148 126 128 102 128 72
    Z
  "/>
</svg></g><g filter="url(#grey)"><svg xmlns="http://www.w3.org/2000/svg" role="img" aria-labelledby="lockup-b" viewBox="0 0 840 256" x="592.667" y="514" width="414.667" height="120" preserveAspectRatio="xMidYMid meet">
  <title id="l1-lockup-b">Credo Lockup B</title>
  <g id="l1-symbol">
    <path fill="#000000" fill-rule="evenodd" d="
    M 128 24
    L 216 56
    V 136
    C 216 188 178 224 128 238
    C 78 224 40 188 40 136
    V 56
    Z
    M 128 72
    C 128 102 108 126 78 126
    C 108 126 128 150 128 180
    C 128 150 148 126 178 126
    C 148 126 128 102 128 72
    Z
  "/>
  </g>
  <g id="l1-wordmark" fill="#000000" fill-rule="evenodd">
    <path d="M 350 72 A 60 60 0 1 0 350 184 L 332 158 A 34 34 0 1 1 332 98 Z M 384 68 H 430 C 452 68 466 80 466 98 C 466 112 456 122 442 126 L 470 188 H 440 L 416 134 H 410 V 188 H 384 Z M 410 92 V 114 H 426 C 434 114 440 108 440 103 C 440 97 434 92 426 92 Z M 488 68 H 554 V 94 H 514 V 115 H 548 V 141 H 514 V 162 H 554 V 188 H 488 Z M 574 68 H 614 C 646 68 668 92 668 128 C 668 164 646 188 614 188 H 574 Z M 600 94 V 162 H 614 C 632 162 642 148 642 128 C 642 108 632 94 614 94 Z M 742 68 C 776 68 800 94 800 128 C 800 162 776 188 742 188 C 708 188 684 162 684 128 C 684 94 708 68 742 68 Z M 742 94 C 724 94 710 108 710 128 C 710 148 724 162 742 162 C 760 162 774 148 774 128 C 774 108 760 94 742 94 Z"/>
  </g>
</svg></g><g filter="url(#grey)"><svg xmlns="http://www.w3.org/2000/svg" role="img" aria-labelledby="title-b" viewBox="0 0 256 256" x="592.667" y="660" width="64" height="64" preserveAspectRatio="xMidYMid meet">
  <title id="s164-title-b">Credo - Concept B: The Reputation Firewall</title>
  <!-- Fortified shield silhouette with negative-space 4-point review star -->
  <path fill="#000000" fill-rule="evenodd" d="
    M 128 24
    L 216 56
    V 136
    C 216 188 178 224 128 238
    C 78 224 40 188 40 136
    V 56
    Z
    M 128 72
    C 128 102 108 126 78 126
    C 108 126 128 150 128 180
    C 128 150 148 126 178 126
    C 148 126 128 102 128 72
    Z
  "/>
</svg></g><text x="624.667" y="744" font-family="system-ui,-apple-system,'Segoe UI',Helvetica,Arial,sans-serif" font-size="12" fill="#8a8a8a" text-anchor="middle">64px</text><g filter="url(#grey)"><svg xmlns="http://www.w3.org/2000/svg" role="img" aria-labelledby="title-b" viewBox="0 0 256 256" x="682.667" y="692" width="32" height="32" preserveAspectRatio="xMidYMid meet">
  <title id="s132-title-b">Credo - Concept B: The Reputation Firewall</title>
  <!-- Fortified shield silhouette with negative-space 4-point review star -->
  <path fill="#000000" fill-rule="evenodd" d="
    M 128 24
    L 216 56
    V 136
    C 216 188 178 224 128 238
    C 78 224 40 188 40 136
    V 56
    Z
    M 128 72
    C 128 102 108 126 78 126
    C 108 126 128 150 128 180
    C 128 150 148 126 178 126
    C 148 126 128 102 128 72
    Z
  "/>
</svg></g><text x="698.667" y="744" font-family="system-ui,-apple-system,'Segoe UI',Helvetica,Arial,sans-serif" font-size="12" fill="#8a8a8a" text-anchor="middle">32px</text><g filter="url(#grey)"><svg xmlns="http://www.w3.org/2000/svg" role="img" aria-labelledby="title-b" viewBox="0 0 256 256" x="740.667" y="708" width="16" height="16" preserveAspectRatio="xMidYMid meet">
  <title id="s116-title-b">Credo - Concept B: The Reputation Firewall</title>
  <!-- Fortified shield silhouette with negative-space 4-point review star -->
  <path fill="#000000" fill-rule="evenodd" d="
    M 128 24
    L 216 56
    V 136
    C 216 188 178 224 128 238
    C 78 224 40 188 40 136
    V 56
    Z
    M 128 72
    C 128 102 108 126 78 126
    C 108 126 128 150 128 180
    C 128 150 148 126 178 126
    C 148 126 128 102 128 72
    Z
  "/>
</svg></g><text x="748.667" y="744" font-family="system-ui,-apple-system,'Segoe UI',Helvetica,Arial,sans-serif" font-size="12" fill="#8a8a8a" text-anchor="middle">16px</text><text x="592.6666666666667" y="780" font-family="system-ui,-apple-system,'Segoe UI',Helvetica,Arial,sans-serif" font-size="26" font-weight="700" fill="#161616">B · The Reputation Shield</text><text x="592.6666666666667" y="814" font-family="system-ui,-apple-system,'Segoe UI',Helvetica,Arial,sans-serif" font-size="19" fill="#555">Neo-brutalist shield crest with</text><text x="592.6666666666667" y="840" font-family="system-ui,-apple-system,'Segoe UI',Helvetica,Arial,sans-serif" font-size="19" fill="#555">negative-space 4-point trust star (firewall</text><text x="592.6666666666667" y="866" font-family="system-ui,-apple-system,'Segoe UI',Helvetica,Arial,sans-serif" font-size="19" fill="#555">&amp; verification).</text><rect x="1065.33" y="150" width="474.667" height="774" rx="18" fill="#fff" stroke="#161616" stroke-width="2"/><g filter="url(#grey)"><svg xmlns="http://www.w3.org/2000/svg" role="img" aria-labelledby="title-c" viewBox="0 0 256 256" x="1095.33" y="190" width="414.667" height="300" preserveAspectRatio="xMidYMid meet">
  <title id="c2-title-c">Credo - Concept C: The Standee Velocity Monogram</title>
  <!-- Architectural neo-brutalist C evoking table standee fold and review pulse -->
  <path fill="#000000" fill-rule="evenodd" d="
    M 216 48
    H 88
    L 40 96
    V 160
    L 88 208
    H 216
    L 176 168
    H 104
    L 80 144
    V 112
    L 104 88
    H 176
    Z
    M 172 128
    L 194 106
    L 216 128
    L 194 150
    Z
  "/>
</svg></g><g filter="url(#grey)"><svg xmlns="http://www.w3.org/2000/svg" role="img" aria-labelledby="lockup-c" viewBox="0 0 840 256" x="1095.33" y="514" width="414.667" height="120" preserveAspectRatio="xMidYMid meet">
  <title id="l2-lockup-c">Credo Lockup C</title>
  <g id="l2-symbol">
    <path fill="#000000" fill-rule="evenodd" d="
    M 216 48
    H 88
    L 40 96
    V 160
    L 88 208
    H 216
    L 176 168
    H 104
    L 80 144
    V 112
    L 104 88
    H 176
    Z
    M 172 128
    L 194 106
    L 216 128
    L 194 150
    Z
  "/>
  </g>
  <g id="l2-wordmark" fill="#000000" fill-rule="evenodd">
    <path d="M 350 72 A 60 60 0 1 0 350 184 L 332 158 A 34 34 0 1 1 332 98 Z M 384 68 H 430 C 452 68 466 80 466 98 C 466 112 456 122 442 126 L 470 188 H 440 L 416 134 H 410 V 188 H 384 Z M 410 92 V 114 H 426 C 434 114 440 108 440 103 C 440 97 434 92 426 92 Z M 488 68 H 554 V 94 H 514 V 115 H 548 V 141 H 514 V 162 H 554 V 188 H 488 Z M 574 68 H 614 C 646 68 668 92 668 128 C 668 164 646 188 614 188 H 574 Z M 600 94 V 162 H 614 C 632 162 642 148 642 128 C 642 108 632 94 614 94 Z M 742 68 C 776 68 800 94 800 128 C 800 162 776 188 742 188 C 708 188 684 162 684 128 C 684 94 708 68 742 68 Z M 742 94 C 724 94 710 108 710 128 C 710 148 724 162 742 162 C 760 162 774 148 774 128 C 774 108 760 94 742 94 Z"/>
  </g>
</svg></g><g filter="url(#grey)"><svg xmlns="http://www.w3.org/2000/svg" role="img" aria-labelledby="title-c" viewBox="0 0 256 256" x="1095.33" y="660" width="64" height="64" preserveAspectRatio="xMidYMid meet">
  <title id="s264-title-c">Credo - Concept C: The Standee Velocity Monogram</title>
  <!-- Architectural neo-brutalist C evoking table standee fold and review pulse -->
  <path fill="#000000" fill-rule="evenodd" d="
    M 216 48
    H 88
    L 40 96
    V 160
    L 88 208
    H 216
    L 176 168
    H 104
    L 80 144
    V 112
    L 104 88
    H 176
    Z
    M 172 128
    L 194 106
    L 216 128
    L 194 150
    Z
  "/>
</svg></g><text x="1127.33" y="744" font-family="system-ui,-apple-system,'Segoe UI',Helvetica,Arial,sans-serif" font-size="12" fill="#8a8a8a" text-anchor="middle">64px</text><g filter="url(#grey)"><svg xmlns="http://www.w3.org/2000/svg" role="img" aria-labelledby="title-c" viewBox="0 0 256 256" x="1185.33" y="692" width="32" height="32" preserveAspectRatio="xMidYMid meet">
  <title id="s232-title-c">Credo - Concept C: The Standee Velocity Monogram</title>
  <!-- Architectural neo-brutalist C evoking table standee fold and review pulse -->
  <path fill="#000000" fill-rule="evenodd" d="
    M 216 48
    H 88
    L 40 96
    V 160
    L 88 208
    H 216
    L 176 168
    H 104
    L 80 144
    V 112
    L 104 88
    H 176
    Z
    M 172 128
    L 194 106
    L 216 128
    L 194 150
    Z
  "/>
</svg></g><text x="1201.33" y="744" font-family="system-ui,-apple-system,'Segoe UI',Helvetica,Arial,sans-serif" font-size="12" fill="#8a8a8a" text-anchor="middle">32px</text><g filter="url(#grey)"><svg xmlns="http://www.w3.org/2000/svg" role="img" aria-labelledby="title-c" viewBox="0 0 256 256" x="1243.33" y="708" width="16" height="16" preserveAspectRatio="xMidYMid meet">
  <title id="s216-title-c">Credo - Concept C: The Standee Velocity Monogram</title>
  <!-- Architectural neo-brutalist C evoking table standee fold and review pulse -->
  <path fill="#000000" fill-rule="evenodd" d="
    M 216 48
    H 88
    L 40 96
    V 160
    L 88 208
    H 216
    L 176 168
    H 104
    L 80 144
    V 112
    L 104 88
    H 176
    Z
    M 172 128
    L 194 106
    L 216 128
    L 194 150
    Z
  "/>
</svg></g><text x="1251.33" y="744" font-family="system-ui,-apple-system,'Segoe UI',Helvetica,Arial,sans-serif" font-size="12" fill="#8a8a8a" text-anchor="middle">16px</text><text x="1095.3333333333335" y="780" font-family="system-ui,-apple-system,'Segoe UI',Helvetica,Arial,sans-serif" font-size="26" font-weight="700" fill="#161616">C · The Standee Velocity</text><text x="1095.3333333333335" y="808" font-family="system-ui,-apple-system,'Segoe UI',Helvetica,Arial,sans-serif" font-size="15" font-weight="700" fill="#161616" letter-spacing="1.5">RECOMMENDED</text><text x="1095.3333333333335" y="842" font-family="system-ui,-apple-system,'Segoe UI',Helvetica,Arial,sans-serif" font-size="19" fill="#555">Architectural chamfered C evoking physical</text><text x="1095.3333333333335" y="868" font-family="system-ui,-apple-system,'Segoe UI',Helvetica,Arial,sans-serif" font-size="19" fill="#555">acrylic standees and instant review pulse.</text></svg>
